<?xml version="1.0" standalone="no"?>
<!DOCTYPE svg PUBLIC "-//W3C//DTD SVG 20010904//EN"
 "http://www.w3.org/TR/2001/REC-SVG-20010904/DTD/svg10.dtd">
<svg version="1.0" xmlns="http://www.w3.org/2000/svg"
 width="1024.000000pt" height="1024.000000pt" viewBox="0 0 1024.000000 1024.000000"
 preserveAspectRatio="xMidYMid meet">

<g transform="translate(0.000000,1024.000000) scale(0.100000,-0.100000)"
fill="#000000" stroke="none">
<path d="M0 5120 l0 -5120 5120 0 5120 0 0 5120 0 5120 -5120 0 -5120 0 0
-5120z m7940 3155 c30 -15 60 -61 60 -89 0 -14 -211 -228 -703 -715 -113 -111
-208 -208 -210 -214 -2 -6 -28 13 -58 42 -29 29 -66 60 -81 69 -16 9 -28 19
-27 22 1 6 246 234 319 296 67 57 317 292 501 471 75 73 144 133 153 133 9 0
30 -7 46 -15z m-658 -192 c21 -18 23 -58 5 -89 -12 -21 -250 -253 -352 -343
-27 -25 -80 -73 -117 -108 l-68 -63 -52 36 c-46 32 -226 124 -243 124 -4 0
-21 10 -38 22 -18 13 -33 21 -35 19 -2 -2 -51 17 -110 42 -135 57 -307 113
-410 132 -126 24 -272 35 -320 24 -40 -9 -48 -6 -118 32 l-75 41 -102 -4 c-92
-3 -107 -6 -158 -35 -38 -21 -60 -28 -70 -22 -59 37 -403 -30 -709 -138 -256
-91 -517 -221 -650 -323 -68 -52 -87 -62 -87 -45 0 8 2 13 4 11 7 -7 168 105
165 115 -1 6 6 9 15 7 13 -2 17 3 16 17 -1 11 0 15 3 9 3 -7 14 -10 24 -7 11
3 17 10 13 16 -3 5 -1 7 4 4 11 -7 69 18 78 34 4 5 11 7 16 4 5 -4 14 6 19 20
5 14 15 23 20 20 6 -4 16 -2 23 3 7 5 27 13 45 17 18 4 31 9 28 13 -7 6 58 52
73 52 6 0 11 5 11 10 0 6 5 10 10 10 6 0 10 -7 10 -16 0 -13 3 -14 13 -5 8 6
17 8 20 4 4 -3 7 -2 7 3 0 5 10 10 21 11 12 1 26 6 31 11 6 6 0 8 -16 5 -14
-3 -26 -1 -26 3 0 5 16 10 36 11 21 1 42 10 52 21 9 10 26 18 38 16 11 -2 30
5 42 16 13 12 28 17 38 13 14 -5 16 -3 10 13 -6 15 -5 17 5 7 7 -7 21 -13 31
-13 10 0 17 6 16 13 -2 8 12 13 39 15 26 2 41 8 39 15 -1 7 -1 9 1 5 9 -16 31
-7 37 15 6 20 7 21 17 4 7 -12 14 -15 22 -8 7 5 35 8 64 7 40 -2 50 0 46 11
-4 11 1 12 20 8 14 -4 28 -2 32 4 4 8 12 8 26 1 21 -12 39 -6 39 13 0 8 -4 7
-9 -2 -8 -12 -11 -12 -23 0 -13 12 -3 14 70 16 57 2 88 7 94 15 6 10 8 10 8 1
0 -7 10 -13 22 -13 21 0 21 0 2 16 -18 15 -18 15 4 9 13 -4 30 -1 38 6 12 9
17 10 23 1 9 -15 51 -3 51 15 0 8 5 11 10 8 6 -4 8 -11 5 -16 -8 -12 37 -12
69 1 19 7 25 6 23 -3 -1 -8 15 -13 46 -15 26 -2 45 -7 42 -13 -4 -5 3 -9 14
-9 15 0 21 7 22 23 1 16 4 13 11 -13 6 -19 13 -30 15 -23 2 7 11 9 19 6 8 -3
26 2 39 11 15 10 45 17 73 17 26 -1 74 2 108 5 49 5 64 2 78 -11 13 -14 22
-15 47 -6 34 12 59 -3 59 -35 0 -16 1 -16 14 1 13 18 16 18 33 4 10 -9 31 -19
47 -23 15 -4 30 -15 33 -24 3 -13 16 -18 54 -19 40 -2 54 -7 74 -30 21 -25 26
-27 45 -15 20 12 20 12 10 -8 -11 -20 -10 -21 9 -15 13 4 36 -3 64 -19 28 -17
59 -26 85 -26 31 0 42 -4 47 -19 4 -13 12 -17 25 -14 11 3 20 1 20 -4 0 -13
56 -44 65 -35 5 4 5 2 1 -5 -8 -14 53 -43 91 -43 13 0 22 -4 19 -9 -9 -14 42
-31 94 -31 l49 0 248 250 c240 242 249 250 287 250 23 0 47 -7 58 -17z m992 2
c3 -8 1 -15 -4 -15 -6 0 -10 7 -10 15 0 8 2 15 4 15 2 0 6 -7 10 -15z m36 5
c0 -5 -4 -10 -10 -10 -5 0 -10 5 -10 10 0 6 5 10 10 10 6 0 10 -4 10 -10z m23
-35 c37 -3 65 -10 62 -15 -3 -5 8 -5 25 0 19 5 28 5 25 -1 -4 -5 -13 -9 -21
-9 -9 0 -12 -5 -8 -12 4 -7 3 -8 -4 -4 -7 4 -12 1 -12 -9 0 -28 -857 -913
-940 -970 l-38 -26 -75 75 -76 76 132 122 c251 235 482 454 661 625 117 113
183 170 190 164 6 -5 41 -12 79 -16z m60 8 c-7 -2 -19 -2 -25 0 -7 3 -2 5 12
5 14 0 19 -2 13 -5z m-3086 -59 c-3 -3 -12 -4 -19 -1 -8 3 -5 6 6 6 11 1 17
-2 13 -5z m428 -24 c3 -5 1 -10 -4 -10 -6 0 -11 5 -11 10 0 6 2 10 4 10 3 0 8
-4 11 -10z m360 -140 c3 -5 1 -10 -4 -10 -6 0 -11 5 -11 10 0 6 2 10 4 10 3 0
8 -4 11 -10z m-1745 -20 c0 -5 -4 -10 -10 -10 -5 0 -10 5 -10 10 0 6 5 10 10
10 6 0 10 -4 10 -10z m1006 -9 c69 -31 124 -117 124 -194 0 -46 -41 -138 -79
-176 -36 -36 -118 -71 -165 -71 -11 0 -44 11 -72 24 -79 37 -134 121 -134 203
0 81 61 181 135 221 32 18 145 14 191 -7z m-400 -33 c-2 -7 -10 -32 -17 -55
-6 -23 -16 -46 -23 -51 -6 -6 -69 -22 -139 -36 -166 -35 -346 -87 -472 -137
-197 -79 -435 -214 -599 -339 -87 -66 -82 -65 -125 -31 -21 17 -44 31 -49 31
-36 0 -8 28 100 102 190 130 300 195 462 274 163 80 453 181 596 208 271 51
274 51 266 34z m749 -17 c149 -26 214 -43 395 -104 263 -88 675 -305 839 -442
l60 -50 -36 -37 c-21 -21 -41 -38 -45 -38 -4 0 -36 20 -69 45 -96 71 -309 200
-428 259 -211 106 -512 208 -711 241 -130 22 -130 22 -130 53 0 15 -4 42 -9
60 -12 39 -15 39 134 13z m2837 -35 c7 4 10 4 7 0 -12 -13 33 -53 53 -48 17 4
17 6 3 22 -23 26 -18 36 8 12 12 -11 32 -25 45 -29 21 -8 13 -19 -124 -163
-254 -267 -862 -880 -872 -880 -6 0 -19 15 -29 33 -11 17 -40 57 -65 87 l-45
56 145 134 c80 74 229 214 330 310 444 420 507 477 519 468 7 -5 18 -6 25 -2z
m-1945 -102 c-3 -3 -12 -4 -19 -1 -8 3 -5 6 6 6 11 1 17 -2 13 -5z m-1693
-136 c9 -37 6 -55 -6 -28 -6 15 -12 20 -15 13 -3 -7 -17 -13 -33 -13 -16 0
-30 -5 -32 -12 -3 -8 -9 -8 -19 -2 -15 9 -79 13 -79 4 0 -3 -24 -6 -52 -7 -29
-2 -54 -7 -56 -12 -2 -5 -11 -7 -20 -5 -9 3 -62 -9 -117 -25 -54 -17 -101 -29
-103 -27 -6 6 159 63 233 80 110 26 248 54 271 55 14 1 24 -7 28 -21z m801 -2
c112 -21 210 -48 360 -101 128 -45 199 -74 180 -75 -5 0 -48 14 -95 30 -246
87 -482 148 -535 138 -17 -4 -25 -1 -25 8 0 18 16 17 115 0z m-2225 -190 c0
-2 -7 -7 -16 -10 -8 -3 -12 -2 -9 4 6 10 25 14 25 6z m1541 -16 c10 -6 19 -16
19 -23 0 -14 48 -46 93 -62 25 -9 17 -12 -70 -24 -96 -13 -216 -35 -362 -66
-154 -33 -460 -172 -634 -288 -137 -91 -346 -293 -452 -436 -198 -267 -343
-602 -402 -926 -23 -125 -25 -475 -4 -605 19 -118 83 -341 131 -457 86 -205
231 -424 443 -667 65 -74 68 -81 62 -115 -13 -74 -31 -69 -112 32 -33 40 -92
104 -132 140 -244 225 -400 515 -482 902 -27 125 -31 164 -36 375 -3 144 -1
274 6 336 22 203 103 480 201 684 82 173 117 224 253 367 85 89 147 164 170
206 47 83 151 180 310 288 121 83 356 203 462 238 33 11 92 31 131 45 74 27
267 63 342 65 24 1 52 -4 63 -9z m640 -5 c289 -43 725 -249 981 -462 85 -71
128 -117 128 -139 0 -11 -17 -14 -77 -14 l-76 0 -76 58 c-81 63 -256 181 -333
226 -83 48 -309 135 -428 166 -105 26 -238 48 -394 65 -57 7 -57 7 -35 22 13
9 40 31 59 49 52 48 94 53 251 29z m735 -33 c-5 -4 -86 36 -86 43 0 3 20 -5
45 -17 24 -12 43 -23 41 -26z m2107 -170 c54 -56 65 -41 -361 -479 -141 -145
-266 -270 -278 -278 -20 -13 -22 -10 -55 68 l-33 81 184 176 c101 96 250 239
330 317 91 90 153 143 166 143 11 0 32 -13 47 -28z m-4976 -45 c100 -53 138
-171 92 -291 -37 -99 -145 -168 -236 -151 -89 16 -136 59 -167 149 -43 131 3
250 119 303 37 17 151 11 192 -10z m3693 -2 c46 -24 98 -91 115 -147 14 -48
14 -59 0 -113 -9 -33 -28 -78 -42 -99 -24 -37 -26 -38 -39 -21 -18 25 -18 26
12 70 32 48 30 74 -5 48 -13 -10 -33 -27 -44 -38 -12 -11 -30 -21 -41 -22 -11
-2 -25 -8 -32 -14 -19 -15 -100 -17 -96 -1 1 6 -3 12 -10 12 -6 0 -8 3 -5 6
10 10 -43 68 -74 81 -26 11 -29 10 -29 -6 0 -10 18 -39 41 -65 39 -44 40 -46
16 -46 -13 0 -32 9 -41 19 -22 24 -46 103 -46 149 0 78 79 179 158 201 44 12
125 5 162 -14z m-1618 -54 c192 -39 284 -73 517 -189 119 -59 171 -96 171
-122 0 -44 -92 -14 -250 82 -99 60 -121 63 -132 20 -12 -44 -29 -48 -80 -20
-44 25 -49 36 -35 89 8 32 2 35 -82 45 l-60 6 -3 -33 -3 -34 -65 2 c-36 1 -80
5 -97 8 -31 6 -33 8 -33 49 0 51 -9 56 -109 56 -56 0 -62 -2 -56 -17 3 -10 9
-31 12 -47 6 -27 4 -29 -18 -23 -13 4 -47 7 -76 7 -47 0 -52 2 -61 29 -6 16
-8 32 -5 35 10 10 -141 7 -156 -3 -11 -7 -10 -13 4 -35 16 -23 16 -29 4 -41
-19 -18 -103 -45 -159 -52 -44 -5 -46 -4 -65 32 -19 35 -21 36 -62 30 -24 -3
-71 -19 -105 -34 -35 -16 -81 -34 -103 -41 -62 -19 -65 -25 -44 -67 11 -21 19
-43 19 -49 0 -12 -174 -114 -194 -114 -6 0 -20 14 -31 30 -11 16 -25 30 -30
30 -12 0 -81 -45 -112 -73 l-22 -19 30 -25 c36 -31 32 -37 -71 -122 -80 -65
-93 -70 -121 -45 -15 14 -20 13 -52 -16 -36 -31 -36 -31 -16 -51 35 -35 27
-77 -34 -171 -34 -53 -51 -58 -91 -27 l-26 21 -15 -36 c-19 -44 -19 -41 6 -76
25 -33 22 -61 -12 -148 l-22 -53 -41 6 c-23 4 -45 8 -51 9 -11 1 -40 -54 -50
-95 -6 -24 -4 -25 27 -22 60 6 64 -3 39 -108 -11 -52 -21 -102 -21 -111 0 -10
-9 -27 -21 -39 -16 -16 -28 -19 -59 -14 -36 6 -38 5 -43 -27 -4 -18 -9 -63
-13 -100 l-7 -67 49 -3 49 -3 3 -122 3 -123 -42 -6 -42 -7 6 -65 c4 -36 12
-69 19 -74 7 -4 31 -5 53 -2 l40 6 14 -49 c20 -66 17 -106 -10 -144 -16 -23
-24 -51 -27 -93 -2 -34 -8 -65 -12 -69 -11 -12 -106 289 -126 398 -9 52 -18
168 -21 275 -4 158 -2 202 16 305 37 208 131 475 231 652 95 168 273 395 363
463 220 167 282 207 423 275 172 85 250 112 419 150 172 39 234 44 470 40 160
-3 233 -9 307 -24z m-937 -190 c-19 -17 -73 -21 -85 -6 -11 13 -5 15 41 15 30
0 49 -4 44 -9z m751 -22 c174 -17 414 -78 414 -106 0 -19 -10 -17 -235 33
-160 35 -180 38 -345 38 -143 0 -195 -4 -285 -22 -128 -26 -175 -42 -175 -57
0 -23 -60 -54 -175 -90 -150 -46 -290 -114 -363 -174 -31 -25 -74 -59 -94 -74
-20 -15 -83 -68 -139 -117 -56 -50 -104 -88 -107 -85 -14 14 282 289 394 366
64 44 153 82 301 130 70 22 139 45 153 49 l25 8 -26 1 c-15 1 -57 -8 -94 -20
-37 -11 -69 -18 -71 -16 -11 10 182 80 286 103 183 41 349 52 536 33z m-2306
-112 l32 -63 -74 -120 c-110 -175 -170 -292 -229 -444 -55 -142 -138 -441
-139 -500 0 -34 -3 -36 -67 -62 l-66 -27 6 67 c19 197 140 575 264 822 43 85
228 387 239 390 1 0 16 -28 34 -63z m4444 -87 c112 -156 264 -487 337 -738 41
-139 79 -308 79 -348 l0 -41 -62 31 -63 31 -36 145 c-89 357 -190 596 -354
835 l-74 109 20 27 c11 16 25 42 31 59 l10 31 29 -33 c15 -18 53 -67 83 -108z
m-2044 105 c11 -7 5 -11 -25 -17 -58 -10 -505 -10 -505 1 0 20 105 30 305 28
116 -2 217 -7 225 -12z m3011 -63 c15 -13 22 -30 22 -52 0 -28 -8 -41 -42 -70
-24 -19 -117 -106 -208 -192 -212 -203 -312 -292 -319 -285 -15 14 -41 123
-34 138 5 8 95 98 200 200 106 101 213 205 240 232 38 38 54 47 83 47 19 0 45
-8 58 -18z m-3773 -79 c-3 -24 -11 -31 -58 -47 -322 -110 -408 -155 -572 -301
-121 -107 -182 -180 -268 -324 -88 -146 -137 -262 -176 -420 -58 -232 -65
-377 -28 -543 8 -37 14 -84 12 -105 l-3 -38 -16 30 c-25 45 -44 194 -43 340 0
114 5 149 36 280 56 231 90 316 211 525 48 83 83 126 162 204 119 119 268 232
379 289 74 37 322 133 354 136 9 1 12 -8 10 -26z m2382 -12 c0 -10 -35 -76
-78 -147 -43 -71 -107 -183 -142 -249 -65 -124 -130 -237 -154 -268 -16 -20
-128 -24 -881 -26 l-410 -1 -57 -178 c-31 -97 -59 -189 -62 -203 l-6 -26 167
-6 c91 -4 351 -7 578 -7 226 0 415 -3 418 -6 4 -4 -34 -86 -85 -183 -50 -97
-127 -246 -171 -331 -44 -85 -84 -159 -89 -165 -6 -6 -147 -10 -381 -11 -205
-1 -431 -2 -504 -3 l-132 -1 -12 -42 c-17 -67 -160 -518 -281 -888 -60 -184
-111 -340 -113 -346 -7 -24 -765 -34 -765 -10 0 6 31 108 69 226 39 118 91
289 117 380 25 91 84 282 129 425 46 143 107 341 135 440 28 99 74 248 100
330 27 83 61 197 75 255 30 120 89 315 177 575 53 159 115 368 132 447 l6 28
923 3 c507 1 1006 3 1110 5 177 2 187 1 187 -17z m-2400 -104 c0 -17 -55 -42
-140 -63 -135 -34 -268 -114 -428 -260 -100 -91 -217 -246 -281 -372 -135
-267 -192 -532 -163 -757 7 -48 7 -84 2 -89 -17 -18 -32 49 -37 174 -10 230
35 431 154 680 93 194 202 327 393 479 138 110 264 172 420 207 74 16 80 16
80 1z m-40 -117 c-6 -12 -33 -26 -68 -35 -107 -30 -183 -70 -304 -162 -64 -49
-194 -187 -263 -278 -76 -102 -198 -353 -241 -497 -8 -26 -19 -50 -25 -54 -7
-4 -9 0 -6 12 4 11 9 33 12 49 4 17 10 39 15 50 4 11 13 40 19 65 17 64 69
194 109 270 99 190 340 435 520 529 74 38 218 84 235 74 4 -2 2 -13 -3 -23z
m-30 -92 c0 -7 -55 -39 -123 -72 -120 -58 -125 -61 -253 -190 -107 -108 -144
-152 -203 -249 -40 -64 -81 -122 -92 -127 -31 -17 -24 9 30 98 79 132 133 202
242 313 87 88 120 114 203 158 84 46 159 78 189 80 4 1 7 -5 7 -11z m2614
-195 c63 -127 99 -238 138 -424 32 -152 32 -158 33 -429 0 -351 -16 -459 -110
-729 -48 -137 -74 -194 -141 -309 -77 -131 -156 -232 -251 -322 -43 -41 -104
-107 -135 -146 -129 -162 -317 -302 -593 -442 -193 -98 -463 -176 -692 -200
-78 -9 -78 -9 -148 30 -57 31 -80 38 -125 38 -71 0 -129 -16 -160 -44 -37 -34
-52 -36 -143 -25 -171 21 -415 95 -542 163 -55 30 -49 29 75 -9 88 -27 237
-43 285 -31 26 7 27 8 9 21 -18 14 -18 14 2 15 12 0 79 -9 150 -20 180 -28
447 -28 611 0 288 49 412 86 607 179 225 108 371 209 566 391 249 232 434 512
529 800 106 323 128 618 70 962 -34 205 -72 330 -148 488 l-50 104 37 42 37
41 21 -24 c12 -14 42 -68 68 -120z m-2656 65 c-3 -7 -32 -26 -65 -43 -74 -38
-222 -156 -280 -223 -48 -57 -114 -156 -133 -201 -9 -23 -19 -31 -37 -31 l-24
0 32 58 c55 97 95 155 146 209 90 97 198 186 258 215 63 29 110 37 103 16z
m-47 -127 c-6 -10 -34 -32 -63 -49 -100 -56 -187 -160 -244 -288 -13 -30 -28
-54 -34 -54 -47 0 21 148 114 248 89 95 258 202 227 143z m2477 -153 c161
-324 172 -867 26 -1246 -132 -341 -380 -654 -706 -893 -199 -144 -503 -276
-768 -332 -144 -30 -530 -32 -653 -4 -93 22 -97 39 -11 48 32 3 53 6 47 7 -8
1 -13 19 -13 47 0 37 3 45 19 45 28 0 39 -21 35 -66 l-3 -41 61 -7 c89 -9 351
-7 367 3 9 6 12 21 9 46 -4 35 -2 39 29 52 19 7 57 15 85 16 47 2 52 0 68 -28
18 -32 38 -40 73 -31 15 3 22 14 24 32 2 48 99 125 138 110 9 -3 23 -19 33
-36 9 -16 24 -30 33 -30 9 0 50 17 91 38 74 37 76 39 62 63 -7 13 -13 31 -13
39 0 15 148 130 166 130 5 0 20 -14 33 -32 19 -26 21 -34 10 -51 -11 -18 -9
-18 27 4 56 34 143 99 143 106 0 4 -13 21 -30 38 l-29 30 86 88 86 88 39 -26
c21 -14 36 -31 32 -36 -19 -31 46 27 79 69 40 53 45 64 24 56 -14 -5 -67 31
-67 47 0 13 124 219 132 219 4 0 24 -11 44 -25 21 -14 42 -24 47 -22 5 1 21
33 36 69 14 37 30 70 34 74 12 12 8 34 -6 34 -8 0 -22 8 -31 19 -16 18 -15 25
24 142 23 68 46 128 51 134 7 6 20 4 40 -7 35 -21 35 -21 42 78 l6 71 -91 7
c-50 3 -157 6 -238 6 -148 0 -210 6 -210 20 0 15 98 22 313 22 l217 0 0 37 0
36 -172 -3 c-95 -2 -203 -6 -240 -11 l-68 -7 0 42 c0 24 -5 55 -10 70 -11 28
-5 64 11 64 5 0 9 -29 9 -65 l0 -64 239 2 239 2 4 28 c5 31 32 28 -243 27
-150 -1 -179 2 -193 15 -28 28 -20 44 19 38 19 -3 122 -2 230 2 l195 7 0 68
c0 37 -3 81 -6 97 -5 26 -9 28 -39 25 -42 -5 -47 4 -78 141 l-24 106 29 27
c30 30 34 53 17 105 -17 49 -22 52 -57 32 -17 -10 -34 -14 -38 -11 -8 9 66
119 76 113 4 -2 30 -51 58 -107z m-2523 10 c-11 -37 -37 -89 -42 -84 -2 2 3
18 12 36 9 18 14 34 12 37 -7 6 -40 -43 -72 -107 -36 -73 -69 -116 -94 -123
-17 -4 -14 6 22 76 59 113 185 241 162 165z m-2058 -150 c-3 -8 -6 -5 -6 6 -1
11 2 17 5 13 3 -3 4 -12 1 -19z m4422 -75 c27 -75 71 -267 71 -314 0 -12 -7
-19 -19 -19 -15 0 -19 11 -24 78 -4 42 -22 135 -42 206 -19 70 -35 133 -35
139 0 25 20 -12 49 -90z m-83 -11 c18 -43 40 -125 64 -239 l17 -83 -23 0 c-18
0 -24 6 -24 21 0 11 -13 78 -29 147 -40 176 -45 205 -31 197 5 -3 17 -23 26
-43z m-410 -7 c4 -20 3 -27 -3 -20 -6 6 -14 24 -17 40 -5 20 -4 27 3 20 5 -5
13 -23 17 -40z m-106 8 c0 -20 -3 -24 -11 -16 -7 7 -9 19 -6 27 10 24 17 19
17 -11z m-407 -3 c4 -16 0 -20 -19 -20 -17 0 -24 6 -24 20 0 13 7 20 19 20 10
0 21 -9 24 -20z m80 5 c4 -8 2 -17 -3 -20 -6 -4 -10 3 -10 14 0 25 6 27 13 6z
m547 -18 c0 -5 -4 -5 -10 -2 -5 3 -10 14 -10 23 0 15 2 15 10 2 5 -8 10 -19
10 -23z m-690 9 c0 -10 -13 -13 -47 -11 -27 2 -76 4 -110 4 -35 1 -63 5 -63
11 0 6 43 10 110 10 87 0 110 -3 110 -14z m820 -49 c0 -5 -11 5 -25 21 -14 17
-25 34 -25 38 1 11 50 -48 50 -59z m76 28 c8 -20 25 -86 38 -148 14 -62 27
-120 31 -129 6 -14 2 -18 -17 -18 -23 0 -25 5 -47 143 -12 78 -25 152 -28 165
-8 34 6 26 23 -13z m-2259 -159 c-3 -19 -19 -65 -35 -103 -17 -37 -43 -110
-58 -160 l-29 -93 -227 0 c-172 0 -228 3 -228 12 0 12 36 101 112 273 21 49
44 93 51 97 7 4 104 8 216 8 l204 0 -6 -34z m-1623 4 c34 -13 104 -77 123
-113 47 -91 -12 -262 -107 -309 -51 -26 -145 -24 -194 5 -46 26 -101 101 -116
159 -16 58 3 139 43 185 59 67 177 102 251 73z m5031 -14 c131 -60 165 -203
80 -331 -42 -63 -114 -105 -179 -105 -136 0 -234 158 -191 306 39 134 163 190
290 130z m-1179 -90 c6 -44 5 -48 -12 -44 -14 2 -20 13 -22 42 -7 83 23 85 34
2z m-137 -238 c-6 -23 -9 -53 -8 -67 1 -14 1 -62 -1 -106 l-3 -80 -8 90 c-6
78 -1 146 16 193 10 28 12 9 4 -30z m-70 -235 c3 -107 -35 -198 -159 -383 -96
-143 -196 -240 -350 -340 -172 -113 -290 -164 -441 -195 -135 -27 -225 -31
-329 -15 -100 16 -120 21 -120 30 0 5 71 6 158 3 315 -12 483 43 780 255 54
39 123 98 154 131 53 57 155 195 206 279 33 56 82 215 83 275 1 41 3 47 9 27
4 -14 8 -44 9 -67z m131 63 c0 -45 -57 -223 -100 -313 -77 -163 -269 -389
-435 -515 -33 -25 -130 -81 -215 -125 -251 -127 -445 -165 -669 -129 -98 16
-149 31 -138 42 3 3 25 -1 48 -8 29 -8 99 -13 209 -12 220 1 320 25 505 119
166 86 212 114 310 196 100 83 113 97 219 238 113 150 246 421 246 503 0 10 5
18 10 18 6 0 10 -6 10 -14z m227 -24 c-8 -9 -28 -57 -46 -107 -86 -244 -135
-338 -255 -490 -154 -195 -253 -289 -463 -433 -106 -74 -330 -163 -498 -199
-113 -24 -445 -24 -527 1 -32 9 -58 21 -58 26 0 13 -2 13 121 -6 245 -38 546
14 794 136 174 85 317 184 424 293 95 97 278 334 310 402 26 55 119 306 133
361 9 31 17 44 30 44 10 0 18 -8 19 -17 0 -13 3 -11 11 7 6 16 12 20 15 12 3
-7 -2 -21 -10 -30z m103 15 c0 -38 -78 -283 -87 -273 -2 2 7 55 20 118 14 62
28 128 32 146 8 37 35 44 35 9z m-230 -1 c0 -39 -53 -212 -87 -286 -108 -232
-338 -509 -518 -625 -263 -168 -412 -223 -700 -256 -144 -16 -343 4 -375 37
-14 15 -11 16 25 10 155 -23 369 -16 543 20 82 17 257 82 299 112 16 10 70 41
122 67 84 43 110 64 231 184 101 101 159 169 223 262 95 139 136 228 168 371
12 51 26 99 31 106 14 16 38 15 38 -2z m1254 -58 c-27 -263 -125 -591 -250
-841 -104 -207 -262 -437 -264 -382 0 11 -11 43 -24 71 l-24 52 64 95 c84 127
183 324 238 473 35 99 102 341 131 477 4 21 13 29 35 34 17 3 43 18 58 33 37
38 41 36 36 -12z m-1123 -67 c-6 -38 -11 -97 -11 -131 0 -56 -20 -127 -39
-140 -4 -3 -36 -50 -71 -105 -129 -203 -212 -301 -365 -432 -138 -119 -210
-167 -371 -247 -240 -119 -567 -187 -792 -165 -120 12 -222 30 -229 42 -6 10
40 7 217 -15 115 -14 109 -15 355 31 330 63 497 138 737 330 130 105 191 169
346 370 103 131 200 349 216 484 4 32 10 56 13 54 3 -3 0 -37 -6 -76z m-2582
62 c0 -5 -22 -73 -48 -153 l-47 -145 -50 -6 c-27 -4 -129 -9 -227 -12 l-179
-5 7 26 c4 15 31 79 61 143 30 63 54 120 54 125 0 30 27 34 227 34 112 0 203
-3 202 -7z m-1628 -33 c19 0 29 -5 29 -15 0 -8 5 -15 10 -15 6 0 10 7 10 15 0
8 4 15 9 15 5 0 15 -26 21 -57 18 -90 77 -314 106 -400 45 -134 159 -356 294
-570 28 -46 31 -54 18 -67 -16 -15 -30 -50 -44 -104 l-9 -33 -89 133 c-113
170 -229 404 -288 583 -56 167 -114 387 -124 469 -6 53 -5 59 10 53 10 -4 31
-7 47 -7z m3684 -167 c-56 -140 -223 -318 -420 -448 -192 -126 -319 -171 -521
-182 -99 -6 -231 3 -254 17 -31 19 5 22 123 10 96 -10 136 -10 182 0 97 19
256 70 320 102 92 46 279 189 393 302 87 85 111 115 148 190 25 48 48 86 51
82 3 -3 -7 -36 -22 -73z m-505 -57 c0 -2 -23 -21 -51 -41 -28 -20 -129 -113
-224 -206 l-172 -169 -15 33 c-9 18 -52 77 -97 131 -82 98 -93 122 -66 132 9
4 15 19 15 35 0 25 4 29 28 30 l27 1 -25 7 c-14 4 -26 14 -28 24 -3 14 10 17
110 20 197 5 498 7 498 3z m220 -152 c-124 -125 -232 -201 -346 -244 l-24 -10
20 28 c12 15 54 45 95 67 41 21 97 57 124 79 139 114 204 166 210 166 3 0 -33
-39 -79 -86z m-121 10 c-47 -51 -219 -161 -219 -141 0 2 26 20 58 40 31 20 84
58 117 85 63 52 85 60 44 16z m-2197 -210 c34 -30 44 -34 71 -28 18 3 35 12
40 18 5 7 16 1 33 -18 25 -28 25 -30 8 -43 -10 -7 -28 -13 -41 -13 -13 0 -23
-2 -23 -4 0 -15 83 -125 109 -144 23 -16 31 -31 31 -52 0 -17 -3 -30 -6 -30
-31 0 -284 305 -284 343 0 16 25 5 62 -29z m-1272 -34 c12 -33 28 -60 34 -61
7 0 6 -2 -1 -6 -7 -2 -13 -10 -13 -17 0 -8 -51 -60 -112 -117 -62 -57 -213
-201 -334 -321 -141 -138 -232 -220 -249 -224 -50 -12 -82 53 -54 109 22 44
678 696 700 697 4 0 17 -27 29 -60z m1550 31 c39 -32 35 -53 -4 -27 -26 17
-53 56 -38 56 4 0 23 -13 42 -29z m1253 -90 c39 -15 35 -34 -5 -26 -52 12 -78
24 -78 36 0 12 35 8 83 -10z m-2649 -224 c6 -32 8 -34 51 -33 33 0 45 4 45 14
0 8 13 -5 30 -29 l30 -44 -43 -40 c-174 -161 -277 -254 -372 -337 -60 -53
-149 -135 -197 -184 -47 -49 -151 -153 -230 -231 -122 -121 -149 -143 -175
-143 -43 0 -83 42 -83 88 0 36 30 96 56 110 19 11 510 500 707 705 83 86 157
157 163 157 7 0 15 -15 18 -33z m903 -152 c85 -36 133 -95 148 -182 17 -104
-28 -199 -117 -249 -44 -24 -64 -29 -123 -29 -86 0 -144 29 -190 93 -27 40
-30 51 -30 121 0 66 4 86 30 137 43 83 104 124 186 124 33 0 76 -7 96 -15z
m3719 -4 c45 -20 84 -66 109 -124 22 -52 20 -159 -4 -205 -53 -102 -171 -153
-283 -122 -36 11 -89 63 -118 119 -19 38 -29 131 -18 182 11 58 66 125 122
150 53 24 139 24 192 0z m-4416 -211 c0 -4 12 -11 28 -14 77 -19 101 -22 96
-15 -3 5 -1 9 3 9 5 0 17 -14 27 -31 l18 -30 -50 -52 c-28 -29 -65 -68 -84
-88 -18 -20 -150 -146 -293 -280 -143 -133 -429 -411 -635 -618 -354 -353
-417 -411 -448 -411 -25 0 -82 78 -82 113 0 31 107 147 594 641 259 263 539
547 621 632 124 126 155 153 178 152 15 0 27 -4 27 -8z m387 -340 c35 -33 68
-60 74 -60 5 0 -17 -22 -49 -49 -33 -27 -69 -62 -82 -78 -12 -15 -54 -56 -93
-91 -40 -35 -140 -130 -222 -211 -83 -80 -278 -270 -435 -421 -292 -281 -435
-423 -620 -614 -57 -60 -114 -112 -125 -116 -25 -9 -45 -2 -45 16 0 8 -7 14
-15 14 -9 0 -15 10 -16 23 -1 12 -2 27 -4 32 -1 6 -3 16 -3 24 -2 11 -5 11
-19 0 -43 -35 35 57 168 196 354 373 1156 1203 1261 1306 32 31 60 49 83 53
20 4 39 14 42 22 10 26 35 15 100 -46z m3733 5 c15 -14 45 -31 68 -38 l42 -12
-77 -61 c-291 -227 -587 -382 -938 -492 -149 -47 -295 -78 -410 -88 l-80 -7
19 22 c10 11 27 45 37 73 l18 53 63 12 c247 49 522 135 693 217 185 88 409
232 490 313 38 38 43 39 75 8z m-3241 -34 c137 -100 225 -154 396 -240 270
-137 432 -195 729 -261 l119 -26 19 -53 c9 -30 23 -60 29 -67 7 -8 10 -17 7
-19 -9 -9 -259 35 -375 65 -268 71 -616 226 -845 375 -114 75 -256 190 -266
217 -2 4 16 8 40 8 51 0 71 11 62 33 -11 29 16 19 85 -32z m-192 -236 c29 -22
52 -43 52 -46 1 -9 -52 -63 -119 -124 -128 -114 -385 -358 -673 -639 -169
-165 -321 -309 -337 -319 -64 -41 -122 5 -89 72 8 16 187 206 399 423 212 216
421 431 465 476 106 111 201 188 227 184 14 -3 18 0 13 8 -11 19 4 9 62 -35z
m1834 33 c88 -26 169 -133 169 -223 0 -116 -111 -225 -229 -225 -69 0 -114 20
-166 73 -76 78 -91 144 -55 240 43 116 160 172 281 135z m-1773 -417 l34 -29
-17 -35 c-20 -42 -297 -317 -343 -341 -31 -16 -35 -16 -58 -1 -32 21 -46 58
-34 89 5 13 42 51 82 84 40 33 109 97 153 142 70 72 129 121 145 120 3 -1 20
-14 38 -29z"/>
<path d="M5838 7913 c7 -3 16 -2 19 1 4 3 -2 6 -13 5 -11 0 -14 -3 -6 -6z"/>
<path d="M5890 7900 c8 -5 22 -9 30 -9 10 0 8 3 -5 9 -27 12 -43 12 -25 0z"/>
<path d="M5962 7855 c9 -9 68 -12 74 -4 3 5 -14 9 -37 9 -23 0 -40 -2 -37 -5z"/>
<path d="M4380 7810 c0 -5 7 -10 16 -10 8 0 12 5 9 10 -3 6 -10 10 -16 10 -5
0 -9 -4 -9 -10z"/>
<path d="M5223 7683 c4 -3 -3 -13 -14 -21 -12 -8 -28 -30 -36 -49 -12 -31 -12
-38 2 -59 22 -33 76 -58 109 -50 14 3 33 17 41 30 15 22 14 29 -4 82 -12 32
-26 61 -33 66 -16 9 -74 11 -65 1z"/>
<path d="M5060 7558 c0 -6 22 -33 49 -59 67 -65 137 -84 204 -56 38 16 93 61
107 88 9 17 7 18 -21 15 -28 -3 -75 -43 -64 -54 9 -9 -37 -42 -58 -42 -28 0
-101 46 -141 89 -29 31 -76 43 -76 19z"/>
<path d="M8640 7670 c0 -5 5 -10 11 -10 5 0 7 5 4 10 -3 6 -8 10 -11 10 -2 0
-4 -4 -4 -10z"/>
<path d="M3352 6869 c-28 -29 -52 -60 -52 -69 0 -27 -10 -30 -46 -9 -32 18
-34 18 -34 1 0 -22 49 -100 79 -127 31 -27 136 -33 184 -10 47 22 117 83 117
101 0 9 -4 13 -9 10 -5 -3 -14 1 -21 9 -10 12 -14 12 -26 0 -8 -7 -14 -23 -14
-34 0 -12 -5 -21 -11 -21 -5 0 -8 -4 -4 -10 3 -5 -5 -16 -18 -25 -22 -14 -29
-14 -90 5 -37 12 -67 23 -67 25 0 3 27 2 59 -2 57 -5 61 -4 90 25 41 41 39 66
-9 114 -22 22 -38 45 -37 51 1 6 -7 13 -18 15 -13 2 -38 -15 -73 -49z"/>
<path d="M7090 6901 c0 -4 -14 -24 -31 -42 -42 -47 -49 -69 -33 -100 17 -35
64 -53 111 -44 52 9 70 21 88 55 14 27 13 30 -21 72 -20 24 -46 48 -58 55 -25
14 -56 17 -56 4z"/>
<path d="M4110 3653 c-49 -159 -49 -163 -39 -163 5 0 9 6 9 14 0 14 12 15 42
2 9 -4 31 -6 50 -4 25 2 32 7 30 21 -2 11 4 17 16 17 18 0 69 36 61 44 -2 2
-15 9 -28 16 -19 10 -21 14 -10 21 10 6 11 9 2 10 -7 1 -17 3 -23 4 -5 1 -16
3 -24 4 -8 0 -18 10 -21 21 -9 28 -23 16 -18 -14 4 -21 2 -24 -16 -19 -21 5
-28 23 -14 37 4 3 8 12 9 19 1 7 6 27 9 45 15 66 -3 29 -35 -75z"/>
<path d="M4368 3623 c6 -2 18 -2 25 0 6 3 1 5 -13 5 -14 0 -19 -2 -12 -5z"/>
<path d="M4298 3603 c6 -2 18 -2 25 0 6 3 1 5 -13 5 -14 0 -19 -2 -12 -5z"/>
<path d="M4425 3602 c-3 -3 -5 -13 -5 -23 0 -9 -5 -19 -12 -21 -7 -3 -9 -12
-5 -22 5 -13 16 -16 39 -14 30 3 33 6 36 39 3 32 0 37 -22 41 -14 3 -28 3 -31
0z"/>
<path d="M4716 3602 c-2 -4 -7 -25 -10 -47 -7 -45 -2 -38 13 18 9 35 8 46 -3
29z"/>
<path d="M6750 3725 c-7 -9 -10 -18 -7 -21 3 -3 10 4 17 15 13 25 8 27 -10 6z"/>
<path d="M2700 5213 c-49 -48 -56 -73 -30 -106 16 -20 33 -27 78 -33 31 -4 49
-10 40 -12 -10 -2 -18 -8 -18 -13 0 -5 -6 -9 -14 -9 -8 0 -17 -3 -19 -7 -3 -5
17 -7 44 -6 29 1 47 -2 44 -8 -13 -19 25 -8 55 17 37 32 62 77 54 98 -10 25
-32 19 -48 -13 -14 -26 -34 -41 -56 -41 -5 0 -2 13 7 28 20 36 12 70 -26 111
-38 41 -63 39 -111 -6z"/>
<path d="M2572 5145 c-20 -15 -21 -19 -9 -41 13 -25 108 -97 116 -88 2 2 -2
12 -10 22 -8 10 -4 7 9 -6 12 -13 22 -18 22 -12 0 6 5 8 10 5 20 -12 9 1 -53
68 -60 65 -63 67 -85 52z m28 -15 c0 -5 -5 -10 -11 -10 -5 0 -7 5 -4 10 3 6 8
10 11 10 2 0 4 -4 4 -10z"/>
<path d="M7710 5210 c-42 -39 -42 -88 0 -123 37 -31 37 -36 4 -29 -16 3 -40
23 -62 53 -35 48 -55 59 -67 40 -10 -17 26 -90 57 -116 36 -30 69 -32 93 -5
11 12 28 20 39 19 37 -2 56 1 56 10 0 5 -8 11 -17 14 -16 3 -16 5 2 12 31 12
65 47 65 65 0 22 -38 71 -53 69 -7 -1 -19 0 -27 4 -45 16 -61 14 -90 -13z"/>
<path d="M7900 5138 c0 -15 -2 -35 -5 -45 -3 -10 2 -3 10 16 12 24 13 37 6 44
-8 8 -11 3 -11 -15z"/>
<path d="M3410 3590 c0 -5 -18 -22 -41 -37 -100 -66 -76 -165 40 -165 44 1 51
-2 51 -19 0 -12 7 -19 19 -19 20 0 105 71 122 102 10 19 9 20 -17 14 -16 -4
-37 -9 -46 -12 -13 -4 -25 13 -54 70 -26 55 -42 76 -55 76 -11 0 -19 -4 -19
-10z"/>
<path d="M7082 3577 c-32 -35 -62 -90 -62 -114 0 -25 22 -40 95 -65 47 -16 52
-16 80 1 17 9 31 26 33 37 4 25 -51 101 -83 116 -13 6 -21 16 -19 23 9 23 -24
24 -44 2z"/>
<path d="M7259 3493 c-3 -47 5 -61 26 -43 20 16 19 46 -1 54 -22 9 -24 8 -25
-11z"/>
<path d="M6930 3480 c-13 -9 -13 -12 1 -23 9 -6 14 -16 13 -22 -2 -5 11 -27
29 -48 30 -36 36 -39 97 -43 62 -5 63 -4 35 9 -31 14 -95 74 -95 89 0 13 -39
48 -52 48 -7 0 -20 -5 -28 -10z"/>
<path d="M3127 3173 c-10 -9 -9 -23 1 -23 5 0 9 7 9 15 0 17 -1 18 -10 8z"/>
<path d="M1780 1889 c0 -5 5 -7 10 -4 6 3 10 8 10 11 0 2 -4 4 -10 4 -5 0 -10
-5 -10 -11z"/>
<path d="M5218 2793 c-34 -39 -52 -90 -49 -136 1 -25 59 -57 103 -57 63 0 87
57 48 115 -11 17 -20 38 -20 47 0 17 -36 48 -56 48 -6 0 -18 -8 -26 -17z"/>
<path d="M5047 2713 c-33 -32 75 -133 158 -149 27 -5 36 -4 31 5 -4 6 -13 11
-20 11 -14 0 -65 47 -113 103 -31 37 -43 43 -56 30z m118 -113 c3 -6 -1 -7 -9
-4 -18 7 -21 14 -7 14 6 0 13 -4 16 -10z"/>
<path d="M5416 2653 c-6 -14 -5 -15 5 -6 7 7 10 15 7 18 -3 3 -9 -2 -12 -12z"/>
</g>
</svg>
